<svg width="697" height="184" viewBox="0 0 697 184" fill="none" xmlns="http://www.w3.org/2000/svg">
<path d="M454.621 156.208H458.046V162.409C458.046 164.142 457.926 165.923 457.678 167.745C457.439 169.567 456.921 171.398 456.154 173.22C455.378 175.042 454.193 176.804 452.601 178.486C451.008 180.168 448.868 181.731 446.19 183.165C446.041 182.896 445.812 182.597 445.503 182.299C445.194 181.99 444.886 181.691 444.567 181.383C444.249 181.074 443.95 180.835 443.681 180.656C446.17 179.352 448.161 177.939 449.634 176.435C451.107 174.932 452.203 173.369 452.919 171.757C453.636 170.144 454.094 168.541 454.313 166.949C454.522 165.356 454.631 163.813 454.631 162.32V156.208H454.621ZM443.761 162.688H484.674V165.923H443.761V162.688ZM445.035 151.698C447.076 151.698 449.415 151.678 452.063 151.629C454.711 151.579 457.538 151.519 460.544 151.449C463.551 151.37 466.676 151.3 469.892 151.22C473.117 151.141 476.323 151.061 479.518 150.972L479.379 153.938C475.307 154.117 471.196 154.296 467.065 154.466C462.934 154.635 459.001 154.774 455.298 154.904C451.585 155.023 448.3 155.133 445.443 155.222L445.035 151.708V151.698ZM458.125 140.838L461.908 141.754C461.182 143.157 460.365 144.601 459.469 146.084C458.573 147.577 457.687 149.011 456.802 150.394C455.916 151.778 455.069 152.982 454.243 154.018L451.326 153.062C452.113 151.997 452.939 150.753 453.785 149.319C454.631 147.886 455.438 146.432 456.204 144.939C456.961 143.446 457.598 142.082 458.116 140.838H458.125ZM468.299 145.765L470.987 143.894C472.629 145.049 474.332 146.323 476.094 147.706C477.856 149.09 479.508 150.484 481.041 151.877C482.574 153.281 483.818 154.555 484.754 155.71L481.837 157.81C480.951 156.656 479.767 155.372 478.284 153.958C476.79 152.544 475.178 151.111 473.426 149.668C471.674 148.224 469.962 146.92 468.289 145.765H468.299ZM470.628 155.76H474.142V183.085H470.628V155.76Z" fill="#5ACAD0"/>
<path d="M492.25 177.64H524.861V181.064H492.25V177.64ZM492.519 144.292L495.625 143.058C496.471 144.123 497.297 145.268 498.083 146.502C498.87 147.736 499.586 148.951 500.224 150.155C500.861 151.36 501.348 152.445 501.687 153.42L498.402 154.924C498.063 153.918 497.596 152.803 496.988 151.569C496.381 150.334 495.684 149.08 494.918 147.806C494.141 146.532 493.345 145.357 492.519 144.292ZM493.156 157.203H526.633V183.065H523.03V160.628H493.156V157.203ZM494.659 167.237H524.403V170.522H494.659V167.237ZM507.889 141.057H511.632V159.025H507.889V141.057ZM523.537 142.65L527.23 143.884C526.563 145.188 525.857 146.522 525.11 147.876C524.363 149.23 523.617 150.544 522.85 151.818C522.094 153.092 521.357 154.217 520.66 155.192L517.694 154.048C518.361 153.012 519.058 151.838 519.794 150.514C520.521 149.19 521.228 147.836 521.895 146.452C522.562 145.068 523.109 143.804 523.537 142.64V142.65Z" fill="#5ACAD0"/>
<g opacity="0.5">
<path d="M33.6511 35.5479C47.1993 35.5479 56.8653 37.5587 62.629 41.5804C68.4026 45.6021 71.2795 51.3757 71.2795 58.8915C71.2795 63.0027 70.5329 66.4769 69.0497 69.3139C67.5665 72.161 65.7049 74.4107 63.4751 76.0632C61.2453 77.7256 58.9458 78.8604 56.5865 79.4776V80.1346C59.1249 80.7518 61.6534 81.797 64.1918 83.2803C66.7303 84.7635 68.8506 86.9734 70.5528 89.9001C72.2551 92.8267 73.1112 96.7887 73.1112 101.766C73.1112 110.247 69.9157 116.937 63.5348 121.834C57.1539 126.732 48.4536 129.181 37.4339 129.181H1V35.5479H33.6511ZM33.9099 71.484C38.1108 71.484 41.0573 70.608 42.7596 68.866C44.4618 67.114 45.3179 65.0235 45.3179 62.5747C45.3179 57.3286 41.3361 54.7105 33.3823 54.7105H26.3046V71.494H33.9099V71.484ZM26.3046 89.9697V109.64H35.2239C39.594 109.64 42.6501 108.704 44.4021 106.823C46.1541 104.941 47.0201 102.562 47.0201 99.6755C47.0201 97.1371 46.1441 94.8873 44.4021 92.9263C42.6501 90.9553 39.4148 89.9797 34.6963 89.9797H26.3046V89.9697Z" fill="url(#paint0_radial_1_261)"/>
<path d="M107.484 55.3576C118.066 55.3576 126.408 58.115 132.53 63.6199C138.652 69.1248 141.708 77.4369 141.708 88.5363V99.6855H96.9923C97.1615 103.448 98.585 106.554 101.253 108.993C103.921 111.442 107.783 112.666 112.86 112.666C117.409 112.666 121.56 112.228 125.313 111.352C129.066 110.476 132.958 109.083 136.98 107.151V125.119C133.486 126.951 129.653 128.315 125.502 129.181C121.351 130.057 116.125 130.495 109.834 130.495C102.487 130.495 95.957 129.201 90.2331 126.623C84.5092 124.044 79.9798 120.003 76.665 114.488C73.3401 108.983 71.6777 101.945 71.6777 93.3742C71.6777 84.8033 73.1809 77.4668 76.1971 71.8723C79.2133 66.2778 83.4142 62.1267 88.7897 59.4191C94.1652 56.7114 100.397 55.3576 107.474 55.3576H107.484ZM108.4 72.3999C105.424 72.3999 102.955 73.3157 100.994 75.1573C99.023 76.9889 97.8683 79.9255 97.5199 83.9472H119.022C118.932 80.712 117.996 77.9844 116.205 75.7546C114.413 73.5247 111.815 72.4098 108.4 72.4098V72.3999Z" fill="url(#paint1_radial_1_261)"/>
<path d="M188.127 55.3576C195.642 55.3576 201.765 57.458 206.483 61.6489C211.201 65.8497 213.561 72.6189 213.561 81.9762V129.181H188.515V89.5815C188.515 84.7734 187.818 81.15 186.415 78.7011C185.011 76.2523 182.781 75.0279 179.725 75.0279C175.007 75.0279 171.831 76.9491 170.218 80.8015C168.596 84.654 167.789 90.1987 167.789 97.4556V129.191H142.744V56.6716H161.628L165.042 66.2479H165.958C168.227 62.8434 171.224 60.1756 174.937 58.2444C178.65 56.3232 183.04 55.3576 188.117 55.3576H188.127Z" fill="url(#paint2_radial_1_261)"/>
<path d="M249.198 37.1307C248.412 40.2764 247.406 44.0392 246.182 48.4093C244.958 52.7793 243.644 57.1793 242.25 61.5892C240.846 66.009 239.413 69.8316 237.92 73.0668H220.081C220.957 69.0452 221.783 64.8244 222.57 60.4145C223.356 56.0046 224.103 51.6545 224.799 47.364C225.496 43.0836 226.024 39.1913 226.372 35.6972H248.272L249.188 37.1407L249.198 37.1307Z" fill="url(#paint3_radial_1_261)"/>
<path d="M291.774 110.695C294.044 110.695 296.124 110.456 298.006 109.979C299.887 109.501 301.828 108.913 303.839 108.207V126.433C301.131 127.568 298.245 128.534 295.188 129.32C292.122 130.107 288.24 130.505 283.522 130.505C278.803 130.505 274.672 129.758 271.128 128.275C267.584 126.792 264.807 124.233 262.806 120.6C260.795 116.977 259.79 111.88 259.79 105.32V75.4261H251V65.1927L262.149 57.3286L268.57 42.118H284.965V56.6716H302.804V75.4261H284.965V103.618C284.965 108.336 287.235 110.695 291.784 110.695H291.774Z" fill="url(#paint4_radial_1_261)"/>
<path d="M372.685 92.7271C372.685 104.882 369.45 114.209 362.979 120.719C356.509 127.23 347.639 130.485 336.361 130.485C329.363 130.485 323.161 129.022 317.736 126.095C312.31 123.168 308.05 118.878 304.954 113.244C301.848 107.609 300.295 100.761 300.295 92.7172C300.295 80.7418 303.53 71.5139 310.001 65.0434C316.471 58.5729 325.391 55.3376 336.749 55.3376C343.737 55.3376 349.929 56.7811 355.304 59.6679C360.68 62.5547 364.921 66.7755 368.026 72.3202C371.132 77.8749 372.685 84.6739 372.685 92.7072V92.7271ZM325.739 92.7271C325.739 98.9388 326.565 103.677 328.228 106.952C329.89 110.227 332.688 111.87 336.62 111.87C340.552 111.87 343.2 110.227 344.812 106.952C346.425 103.677 347.241 98.9289 347.241 92.7271C347.241 86.5254 346.435 81.8468 344.812 78.6912C343.19 75.5455 340.422 73.9727 336.49 73.9727C332.558 73.9727 330 75.5455 328.298 78.6912C326.595 81.8368 325.739 86.5155 325.739 92.7271Z" fill="url(#paint5_radial_1_261)"/>
<path d="M454.771 80.4034C454.771 91.2439 452.74 100.293 448.669 107.55C444.607 114.806 438.903 120.222 431.557 123.805C424.21 127.389 415.56 129.181 405.595 129.181H375.303V35.5479H407.695C422.817 35.5479 434.443 39.4003 442.576 47.0853C450.709 54.7802 454.771 65.8796 454.771 80.3934V80.4034ZM428.54 81.3192C428.54 64.4461 421.672 56.0146 407.954 56.0146H400.608V108.465H406.242C413.937 108.465 419.571 106.236 423.155 101.776C426.739 97.3162 428.53 90.4973 428.53 81.3192H428.54Z" fill="url(#paint6_radial_1_261)"/>
<path d="M526.245 92.7271C526.245 104.882 523.01 114.209 516.539 120.719C510.069 127.23 501.199 130.485 489.92 130.485C482.922 130.485 476.721 129.022 471.295 126.095C465.87 123.168 461.61 118.878 458.514 113.244C455.408 107.609 453.855 100.761 453.855 92.7172C453.855 80.7418 457.09 71.5139 463.561 65.0434C470.031 58.5729 478.951 55.3376 490.309 55.3376C497.297 55.3376 503.489 56.7811 508.864 59.6679C514.24 62.5547 518.48 66.7755 521.586 72.3202C524.692 77.8749 526.245 84.6739 526.245 92.7072V92.7271ZM479.299 92.7271C479.299 98.9388 480.125 103.677 481.788 106.952C483.45 110.227 486.247 111.87 490.179 111.87C494.111 111.87 496.759 110.227 498.372 106.952C499.985 103.677 500.801 98.9289 500.801 92.7271C500.801 86.5254 499.995 81.8468 498.372 78.6912C496.749 75.5455 493.982 73.9727 490.05 73.9727C486.118 73.9727 483.56 75.5455 481.857 78.6912C480.155 81.8368 479.299 86.5155 479.299 92.7271Z" fill="url(#paint7_radial_1_261)"/>
</g>
<path d="M132.53 63.6199C126.408 58.115 118.056 55.3576 107.484 55.3576C100.407 55.3576 94.1751 56.7114 88.7996 59.4191C83.4241 62.1267 79.2233 66.2877 76.2071 71.8723C73.3103 77.2478 71.827 84.0766 71.7076 92.3489C71.3791 91.4629 71.0008 90.6467 70.5727 89.9001C68.8705 86.9734 66.7502 84.7635 64.2118 83.2802C61.6733 81.797 59.1449 80.7418 56.6064 80.1346V79.4776C58.9657 78.8704 61.2652 77.7256 63.495 76.0632C65.7249 74.4007 67.5764 72.151 69.0696 69.3139C70.5528 66.4769 71.2994 63.0027 71.2994 58.8915C71.2994 51.3757 68.4126 45.6021 62.6489 41.5804C56.8752 37.5587 47.2192 35.5479 33.671 35.5479H1V129.181H37.4538C48.4735 129.181 57.1639 126.732 63.5547 121.834C69.0696 117.604 72.1953 112.039 72.9419 105.131C73.7682 108.625 75.0125 111.75 76.665 114.488C79.9898 119.993 84.5092 124.044 90.2331 126.623C95.957 129.201 102.497 130.495 109.834 130.495C116.125 130.495 121.351 130.057 125.502 129.181C129.653 128.305 133.476 126.951 136.98 125.119V107.151C132.958 109.073 129.066 110.476 125.313 111.352C121.55 112.228 117.399 112.666 112.86 112.666C107.793 112.666 103.921 111.442 101.253 108.993C98.585 106.544 97.1615 103.438 96.9923 99.6855H141.708V88.5363C141.708 77.4369 138.642 69.1248 132.53 63.6199ZM26.3146 54.7006H33.3923C41.346 54.7006 45.3279 57.3186 45.3279 62.5647C45.3279 65.0135 44.4718 67.114 42.7695 68.856C41.0673 70.608 38.1108 71.4741 33.9199 71.4741H26.3146V54.6906V54.7006ZM44.412 106.823C42.66 108.704 39.604 109.64 35.2339 109.64H26.3146V89.9697H34.7063C39.4248 89.9697 42.66 90.9552 44.412 92.9163C46.1641 94.8873 47.0301 97.1371 47.0301 99.6655C47.0301 102.552 46.1541 104.932 44.412 106.813V106.823ZM97.5199 83.9373C97.8683 79.9156 99.023 76.9889 100.994 75.1473C102.965 73.3157 105.434 72.3899 108.4 72.3899C111.805 72.3899 114.413 73.5048 116.205 75.7347C117.996 77.9645 118.932 80.702 119.022 83.9273H97.5199V83.9373Z" stroke="white" stroke-width="0.5" stroke-linecap="round" stroke-linejoin="round"/>
<path d="M206.493 61.6489C201.774 57.458 195.652 55.3576 188.137 55.3576C183.07 55.3576 178.67 56.3232 174.957 58.2444C171.244 60.1656 168.247 62.8335 165.978 66.2479H165.062L161.647 56.6716H142.764V129.191H167.809V97.4556C167.809 90.1987 168.616 84.654 170.238 80.8015C171.851 76.9591 175.026 75.0279 179.745 75.0279C182.801 75.0279 185.031 76.2523 186.434 78.7011C187.828 81.15 188.535 84.7734 188.535 89.5815V129.181H213.581V81.9762C213.581 72.6189 211.221 65.8497 206.503 61.6489H206.493Z" stroke="white" stroke-width="0.5" stroke-linecap="round" stroke-linejoin="round"/>
<path d="M226.382 35.6873C226.034 39.1813 225.506 43.0736 224.809 47.3541C224.113 51.6346 223.366 55.9847 222.58 60.4046C221.793 64.8244 220.957 69.0352 220.091 73.0569H237.93C239.413 69.8216 240.856 65.999 242.26 61.5792C243.654 57.1693 244.968 52.7694 246.192 48.3993C247.416 44.0292 248.422 40.2664 249.208 37.1207L248.292 35.6773H226.392L226.382 35.6873Z" stroke="white" stroke-width="0.5" stroke-linecap="round" stroke-linejoin="round"/>
<path d="M355.314 59.6779C349.939 56.791 343.747 55.3476 336.759 55.3476C325.391 55.3476 316.471 58.5829 310.011 65.0534C303.54 71.5239 300.305 80.7418 300.305 92.7272C300.305 98.6502 301.151 103.916 302.834 108.535C301.181 109.083 299.569 109.58 298.006 109.979C296.124 110.456 294.054 110.695 291.774 110.695C287.225 110.695 284.955 108.336 284.955 103.618V75.4261H302.794V56.6716H284.955V42.118H268.56L262.129 57.3286L250.98 65.1927V75.4261H259.77V105.32C259.77 111.88 260.775 116.967 262.786 120.6C264.797 124.233 267.574 126.782 271.108 128.275C274.652 129.758 278.783 130.505 283.502 130.505C288.22 130.505 292.113 130.107 295.169 129.32C298.225 128.534 301.112 127.568 303.819 126.433V111.034C304.168 111.79 304.536 112.537 304.934 113.254C308.04 118.888 312.3 123.178 317.716 126.105C323.131 129.032 329.343 130.495 336.341 130.495C347.619 130.495 356.489 127.24 362.959 120.729C369.43 114.219 372.665 104.882 372.665 92.7371C372.665 84.6938 371.112 77.8948 368.006 72.3501C364.901 66.7954 360.66 62.5846 355.284 59.6978L355.314 59.6779ZM344.822 106.952C343.2 110.227 340.472 111.87 336.63 111.87C332.787 111.87 329.9 110.227 328.238 106.952C326.575 103.677 325.749 98.9289 325.749 92.7272C325.749 86.5254 326.605 81.8468 328.307 78.6912C330.01 75.5455 332.747 73.9727 336.5 73.9727C340.253 73.9727 343.21 75.5455 344.822 78.6912C346.435 81.8368 347.251 86.5155 347.251 92.7272C347.251 98.9388 346.445 103.677 344.822 106.952Z" stroke="white" stroke-width="0.5" stroke-linecap="round" stroke-linejoin="round"/>
<path d="M521.586 72.3401C518.48 66.7855 514.24 62.5747 508.864 59.6878C503.489 56.801 497.297 55.3576 490.309 55.3576C478.941 55.3576 470.021 58.5928 463.561 65.0633C459.011 69.6126 456.065 75.5356 454.721 82.8024C454.741 82.0061 454.781 81.2196 454.781 80.4034C454.781 65.8896 450.719 54.7902 442.586 47.0952C434.453 39.4003 422.826 35.5579 407.705 35.5579H375.313V129.191H405.605C415.57 129.191 424.23 127.399 431.567 123.815C438.913 120.232 444.617 114.816 448.679 107.56C451.177 103.09 452.909 97.9434 453.865 92.1199C453.865 92.329 453.855 92.538 453.855 92.7471C453.855 100.79 455.408 107.629 458.514 113.273C461.62 118.908 465.88 123.198 471.295 126.125C476.711 129.052 482.922 130.515 489.921 130.515C501.199 130.515 510.069 127.26 516.539 120.749C523.01 114.239 526.245 104.902 526.245 92.757C526.245 84.7137 524.692 77.9147 521.586 72.37V72.3401ZM423.165 101.776C419.581 106.236 413.937 108.465 406.252 108.465H400.618V56.0146H407.964C421.692 56.0146 428.55 64.4561 428.55 81.3192C428.55 90.4973 426.759 97.3162 423.175 101.776H423.165ZM498.372 106.952C496.749 110.227 494.022 111.87 490.179 111.87C486.337 111.87 483.45 110.227 481.788 106.952C480.125 103.677 479.299 98.9289 479.299 92.7272C479.299 86.5254 480.155 81.8468 481.857 78.6912C483.56 75.5455 486.297 73.9727 490.05 73.9727C493.803 73.9727 496.759 75.5455 498.382 78.6912C499.995 81.8368 500.811 86.5155 500.811 92.7272C500.811 98.9388 500.005 103.677 498.382 106.952H498.372Z" stroke="white" stroke-width="0.5" stroke-linecap="round" stroke-linejoin="round"/>
<path d="M524.971 52.62C519.107 52.62 514.369 49.5739 510.895 43.5514C503.399 30.5706 508.287 15.1808 522.512 6.96822C527.519 4.08138 532.954 2.54837 538.23 2.54837C547.428 2.54837 555.362 7.15736 560.001 15.2007C569.229 31.1778 553.859 40.0474 544.671 45.3532C538.141 49.126 531.232 52.62 524.971 52.62Z" fill="#B06731"/>
<path d="M538.23 5.12662C546.074 5.12662 553.351 8.82974 557.781 16.4948C564.899 28.8285 555.72 36.0257 543.397 43.1433C536.697 47.0156 530.436 50.0617 524.981 50.0617C520.392 50.0617 516.38 47.9115 513.125 42.2772C506.007 29.9435 511.472 16.3156 523.796 9.19806C528.465 6.50036 533.452 5.12662 538.23 5.12662ZM538.23 0C532.506 0 526.623 1.64251 521.228 4.7583C505.718 13.7174 500.433 30.5706 508.675 44.8455C512.637 51.7142 518.122 55.1883 524.971 55.1883C531.819 55.1883 539.106 51.535 545.945 47.583C552.167 43.9894 558.428 39.9478 562.081 34.7018C566.481 28.3806 566.521 21.3925 562.211 13.9265C557.104 5.07685 548.354 0 538.22 0H538.23Z" fill="#21160E"/>
<path d="M672.239 92.1498C662.772 92.1498 656.571 82.7726 651.494 73.9827C646.188 64.8045 637.318 49.4346 653.296 40.2067C657.327 37.8773 661.588 36.7026 665.958 36.7026C675.464 36.7026 684.404 42.3569 689.869 51.8237C698.081 66.0488 694.617 81.8169 681.636 89.3127C678.381 91.1942 675.216 92.1498 672.229 92.1498H672.239Z" fill="#B06731"/>
<path d="M665.968 39.2709C674.598 39.2709 682.711 44.527 687.659 53.1078C694.776 65.4416 692.696 79.9753 680.362 87.0929C677.376 88.815 674.688 89.5815 672.239 89.5815C664.554 89.5815 659.109 82.0459 653.714 72.6985C646.596 60.3647 642.246 49.5441 654.58 42.4265C658.323 40.2664 662.195 39.261 665.958 39.261M665.958 34.1344C661.13 34.1344 656.441 35.4285 652.011 37.9868C644.545 42.2971 641.091 48.3695 641.738 56.0445C642.276 62.4054 645.68 69.0452 649.274 75.2668C654.709 84.6739 661.408 94.7081 672.239 94.7081C675.673 94.7081 679.277 93.643 682.93 91.5326C697.195 83.2902 701.058 66.0588 692.099 50.5396C686.166 40.2664 676.4 34.1344 665.968 34.1344H665.958Z" fill="#21160E"/>
<path d="M555.492 23.3435C560.867 32.6611 553.939 38.0863 544.621 43.4718C535.304 48.8473 527.141 52.1323 521.755 42.8247C516.38 33.5072 520.501 23.2241 529.819 17.8486C539.136 12.4731 550.106 14.046 555.482 23.3535L555.492 23.3435Z" fill="#E0BA9F"/>
<path d="M673.304 83.4296C663.987 88.805 658.562 81.8766 653.176 72.5591C647.801 63.2416 644.516 55.0788 653.823 49.6934C663.131 44.308 673.424 48.4391 678.799 57.7566C684.175 67.0741 682.602 78.0441 673.294 83.4196L673.304 83.4296Z" fill="#E0BA9F"/>
<path d="M620.047 157.79C605.294 157.79 588.441 153.809 573.908 149.916C553.839 144.541 533.452 138.031 520.292 126.931C506.117 114.976 501.936 99.0881 507.48 78.3726C516.489 44.7559 544.671 23.8711 581.035 23.8711C589.506 23.8711 598.157 25.0358 606.748 27.3353C653.027 39.7388 678.451 79.1988 667.202 121.167C660.602 145.815 645.173 157.79 620.037 157.79H620.047Z" fill="#C78352"/>
<path d="M581.035 26.4295C589.198 26.4295 597.629 27.5444 606.091 29.814C648.836 41.2618 676.181 77.7654 664.733 120.51C657.705 146.741 641.44 155.232 620.047 155.232C606.579 155.232 591.079 151.867 574.574 147.448C531.829 136 498.511 121.785 509.959 79.0396C519.147 44.7559 547.946 26.4394 581.045 26.4394M581.045 21.3128C563.246 21.3128 546.831 26.2901 533.561 35.7072C519.585 45.6319 509.71 60.1656 505.002 77.7156C499.168 99.4963 503.628 116.24 518.63 128.902C532.178 140.33 552.883 146.95 573.241 152.405C587.934 156.347 604.986 160.369 620.047 160.369C646.506 160.369 662.742 147.766 669.691 121.844C675.494 100.173 672.05 78.4124 659.985 60.5638C648.477 43.5414 629.813 30.8692 607.425 24.8666C598.615 22.5074 589.745 21.3128 581.045 21.3128Z" fill="#21160E"/>
<path d="M606.081 29.8041C606.081 29.8041 623.601 51.0871 610.162 101.238C602.029 131.57 574.555 147.438 574.555 147.438C617.3 158.886 653.266 163.246 664.713 120.501C676.161 77.7554 648.816 41.2619 606.071 29.8041H606.081Z" fill="#B06731"/>
<path d="M608.968 133.85C604.747 149.598 591.418 147.965 575.57 143.725C559.722 139.474 547.359 134.218 551.579 118.47C555.8 102.722 571.329 96.1416 587.177 100.382C603.025 104.633 613.188 118.101 608.968 133.85Z" fill="#E0BA9F"/>
<path d="M576.117 104.503C576.974 101.298 581.234 102.045 586.361 103.418C591.487 104.792 595.549 106.275 594.693 109.481C593.837 112.686 586.57 114.826 583.524 114.01C580.926 113.313 575.261 107.719 576.117 104.503Z" fill="#1D1D1B"/>
<path d="M595.29 132.008C596.276 128.315 589.715 125.11 581.164 122.82C572.613 120.53 565.327 120.023 564.341 123.716C563.356 127.409 568.323 136.567 576.874 138.857C585.425 141.146 594.305 135.701 595.3 132.008H595.29Z" fill="#DB5858"/>
<path d="M643.728 139.434C644.652 135.987 639.58 131.634 632.4 129.71C625.221 127.786 618.652 129.021 617.728 132.467C616.805 135.914 621.876 140.267 629.056 142.191C636.236 144.115 642.805 142.88 643.728 139.434Z" fill="#DB9797"/>
<path d="M544.673 112.884C545.597 109.438 540.525 105.084 533.345 103.16C526.166 101.237 519.597 102.471 518.673 105.917C517.75 109.364 522.821 113.717 530.001 115.641C537.181 117.565 543.75 116.331 544.673 112.884Z" fill="#DB9797"/>
<path d="M554.854 89.7408C552.386 98.9687 543.884 100.741 534.657 98.262C525.429 95.7932 518.948 90.0096 521.427 80.7817C523.896 71.5537 533.392 66.0688 542.62 68.5474C551.848 71.0162 557.333 80.5129 554.854 89.7408Z" fill="#21160E"/>
<path d="M549.479 78.7111C547.378 80.8314 543.267 83.0015 541.207 83.1608C537.882 83.4196 536.08 78.9898 536.936 75.7645C537.802 72.5392 541.107 70.6379 544.332 71.494C547.558 72.3501 551.828 76.3419 549.479 78.7111Z" fill="#E0BA9F"/>
<path d="M552.585 85.7888C552.067 87.72 550.076 88.8648 548.145 88.3471C546.214 87.8295 544.382 85.5101 545.587 83.9074C546.881 82.1753 549.469 80.3636 551.4 80.8812C553.331 81.3988 553.102 83.8477 552.585 85.7789V85.7888Z" fill="#E0BA9F"/>
<path d="M530.456 90.6168C530.267 91.9408 529.042 92.8466 527.718 92.6575C526.394 92.4684 524.801 90.3281 524.991 89.0042C525.18 87.6802 527.609 86.8042 528.405 87.8693C529.769 89.691 530.635 89.2829 530.446 90.6069L530.456 90.6168Z" fill="#E0BA9F"/>
<path d="M653.913 116.28C651.444 125.508 642.943 127.28 633.715 124.801C624.487 122.322 618.006 116.549 620.485 107.321C622.954 98.0927 632.451 92.6077 641.678 95.0864C650.906 97.5552 656.391 107.052 653.913 116.28Z" fill="#21160E"/>
<path d="M648.537 105.25C646.437 107.37 642.326 109.541 640.265 109.7C636.94 109.959 635.138 105.529 635.994 102.303C636.851 99.0782 640.165 97.1769 643.391 98.033C646.616 98.899 650.887 102.881 648.537 105.25Z" fill="#E0BA9F"/>
<path d="M651.643 112.338C651.125 114.269 649.134 115.414 647.203 114.896C645.272 114.378 643.44 112.059 644.645 110.456C645.939 108.724 648.527 106.913 650.458 107.43C652.39 107.948 652.161 110.397 651.643 112.328V112.338Z" fill="#E0BA9F"/>
<path d="M629.514 117.156C629.325 118.48 628.1 119.386 626.776 119.196C625.452 119.007 623.86 116.867 624.049 115.543C624.238 114.219 626.667 113.343 627.463 114.408C628.827 116.23 629.693 115.822 629.504 117.146L629.514 117.156Z" fill="#E0BA9F"/>
<defs>
<radialGradient id="paint0_radial_1_261" cx="0" cy="0" r="1" gradientUnits="userSpaceOnUse" gradientTransform="translate(271.994 320.698) scale(315.412 315.412)">
<stop/>
<stop offset="0.13" stop-color="#040606"/>
<stop offset="0.3" stop-color="#121717"/>
<stop offset="0.49" stop-color="#283233"/>
<stop offset="0.71" stop-color="#47595B"/>
<stop offset="0.94" stop-color="#6E8B8D"/>
<stop offset="1" stop-color="#7A9A9C"/>
</radialGradient>
<radialGradient id="paint1_radial_1_261" cx="0" cy="0" r="1" gradientUnits="userSpaceOnUse" gradientTransform="translate(271.994 320.698) scale(315.412 315.412)">
<stop/>
<stop offset="0.13" stop-color="#040606"/>
<stop offset="0.3" stop-color="#121717"/>
<stop offset="0.49" stop-color="#283233"/>
<stop offset="0.71" stop-color="#47595B"/>
<stop offset="0.94" stop-color="#6E8B8D"/>
<stop offset="1" stop-color="#7A9A9C"/>
</radialGradient>
<radialGradient id="paint2_radial_1_261" cx="0" cy="0" r="1" gradientUnits="userSpaceOnUse" gradientTransform="translate(271.994 320.698) scale(315.412 315.412)">
<stop/>
<stop offset="0.13" stop-color="#040606"/>
<stop offset="0.3" stop-color="#121717"/>
<stop offset="0.49" stop-color="#283233"/>
<stop offset="0.71" stop-color="#47595B"/>
<stop offset="0.94" stop-color="#6E8B8D"/>
<stop offset="1" stop-color="#7A9A9C"/>
</radialGradient>
<radialGradient id="paint3_radial_1_261" cx="0" cy="0" r="1" gradientUnits="userSpaceOnUse" gradientTransform="translate(271.994 320.698) scale(315.412 315.412)">
<stop/>
<stop offset="0.13" stop-color="#040606"/>
<stop offset="0.3" stop-color="#121717"/>
<stop offset="0.49" stop-color="#283233"/>
<stop offset="0.71" stop-color="#47595B"/>
<stop offset="0.94" stop-color="#6E8B8D"/>
<stop offset="1" stop-color="#7A9A9C"/>
</radialGradient>
<radialGradient id="paint4_radial_1_261" cx="0" cy="0" r="1" gradientUnits="userSpaceOnUse" gradientTransform="translate(271.994 320.698) scale(315.412 315.412)">
<stop/>
<stop offset="0.13" stop-color="#040606"/>
<stop offset="0.3" stop-color="#121717"/>
<stop offset="0.49" stop-color="#283233"/>
<stop offset="0.71" stop-color="#47595B"/>
<stop offset="0.94" stop-color="#6E8B8D"/>
<stop offset="1" stop-color="#7A9A9C"/>
</radialGradient>
<radialGradient id="paint5_radial_1_261" cx="0" cy="0" r="1" gradientUnits="userSpaceOnUse" gradientTransform="translate(271.994 320.698) scale(315.412 315.412)">
<stop/>
<stop offset="0.13" stop-color="#040606"/>
<stop offset="0.3" stop-color="#121717"/>
<stop offset="0.49" stop-color="#283233"/>
<stop offset="0.71" stop-color="#47595B"/>
<stop offset="0.94" stop-color="#6E8B8D"/>
<stop offset="1" stop-color="#7A9A9C"/>
</radialGradient>
<radialGradient id="paint6_radial_1_261" cx="0" cy="0" r="1" gradientUnits="userSpaceOnUse" gradientTransform="translate(271.994 320.698) scale(315.412 315.412)">
<stop/>
<stop offset="0.13" stop-color="#040606"/>
<stop offset="0.3" stop-color="#121717"/>
<stop offset="0.49" stop-color="#283233"/>
<stop offset="0.71" stop-color="#47595B"/>
<stop offset="0.94" stop-color="#6E8B8D"/>
<stop offset="1" stop-color="#7A9A9C"/>
</radialGradient>
<radialGradient id="paint7_radial_1_261" cx="0" cy="0" r="1" gradientUnits="userSpaceOnUse" gradientTransform="translate(271.994 320.698) scale(315.412 315.412)">
<stop/>
<stop offset="0.13" stop-color="#040606"/>
<stop offset="0.3" stop-color="#121717"/>
<stop offset="0.49" stop-color="#283233"/>
<stop offset="0.71" stop-color="#47595B"/>
<stop offset="0.94" stop-color="#6E8B8D"/>
<stop offset="1" stop-color="#7A9A9C"/>
</radialGradient>
</defs>
</svg>
