<?xml version="1.0" encoding="UTF-8"?>
<svg id="Capa_2" data-name="Capa 2" xmlns="http://www.w3.org/2000/svg" viewBox="0 0 294.01 312.12">
  <defs>
    <style>
      .cls-1 {
        fill: #fff;
      }

      .cls-2 {
        fill: #db9797;
      }

      .cls-3 {
        fill: #db5858;
      }

      .cls-4 {
        fill: #c78352;
      }

      .cls-5 {
        fill: #e0ba9f;
      }

      .cls-6 {
        fill: #b06731;
      }

      .cls-7 {
        fill: #21160e;
      }

      .cls-8 {
        fill: #1d1d1b;
      }
    </style>
  </defs>
  <g id="Capa_1-2" data-name="Capa 1">
    <g>
      <g>
        <g>
          <g>
            <g>
              <path class="cls-6" d="m32.94,83.29c-6.27,0-12.28-2.84-17.88-8.44C-.77,59.02.33,34.95,17.67,17.61,26.56,8.72,37.57,3.83,48.67,3.83c9.86,0,18.93,3.86,26.24,11.17,19.47,19.47.74,38.21-10.45,49.4-11.34,11.34-21.04,18.89-31.51,18.89Z"/>
              <path class="cls-7" d="m48.67,7.65c8.39,0,16.66,3.18,23.53,10.05,15.03,15.03,4.58,28.95-10.45,43.98-9.87,9.87-19.26,17.77-28.81,17.77-4.99,0-10.02-2.16-15.18-7.32-15.03-15.03-12.42-36.79,2.61-51.82,8.16-8.16,18.31-12.66,28.29-12.67m0-7.65h0c-12.12,0-24.09,5.3-33.7,14.91C-3.95,33.82-5.04,60.16,12.35,77.56c6.34,6.34,13.27,9.56,20.59,9.56,13.11,0,24.54-10.33,34.22-20.01,10.59-10.59,32.63-32.63,10.45-54.81C69.57,4.25,59.56,0,48.67,0h0Z"/>
            </g>
            <g>
              <path class="cls-6" d="m261.07,83.29c-10.48,0-20.18-7.55-31.51-18.89-11.19-11.19-29.93-29.92-10.45-49.4,7.31-7.31,16.38-11.17,26.24-11.17,11.1,0,22.11,4.9,31,13.79,17.34,17.34,18.44,41.41,2.61,57.24-5.6,5.6-11.62,8.44-17.88,8.44Z"/>
              <path class="cls-7" d="m245.35,7.65c9.98,0,20.13,4.5,28.29,12.67,15.03,15.03,17.65,36.79,2.61,51.82-5.16,5.16-10.19,7.32-15.18,7.32-9.54,0-18.93-7.9-28.81-17.77-15.03-15.03-25.48-28.95-10.45-43.98,6.87-6.87,15.14-10.05,23.53-10.05m0-7.65h0c-10.89,0-20.9,4.25-28.95,12.29-22.18,22.18-.14,44.22,10.45,54.81,9.68,9.68,21.11,20.01,34.22,20.01,7.32,0,14.25-3.22,20.59-9.56,17.39-17.39,16.29-43.74-2.61-62.65-9.61-9.61-21.58-14.91-33.7-14.91h0Z"/>
            </g>
          </g>
          <path class="cls-5" d="m71.55,28.47c11.35,11.35,3.46,21.87-7.89,33.22-11.35,11.35-21.87,19.25-33.22,7.89-11.35-11.35-9.38-27.79,1.97-39.14,11.35-11.35,27.79-13.33,39.14-1.97Z"/>
          <path class="cls-5" d="m264.66,69.59c-11.35,11.35-21.87,3.46-33.22-7.89-11.35-11.35-19.25-21.87-7.89-33.22,11.35-11.35,27.79-9.38,39.14,1.97,11.35,11.35,13.33,27.79,1.97,39.14Z"/>
        </g>
        <g>
          <path class="cls-4" d="m147.01,203.87c-62.46,0-123.43-5.99-123.43-77.51,0-64.87,51.91-111.95,123.43-111.95s123.43,47.08,123.43,111.95c0,71.52-60.98,77.51-123.43,77.51Z"/>
          <path class="cls-7" d="m147.01,18.24c66.06,0,119.61,42.07,119.61,108.12s-53.55,73.68-119.61,73.68-119.61-7.62-119.61-73.68S80.95,18.24,147.01,18.24m0-7.65c-34.6,0-66.42,11.07-89.59,31.16-24.29,21.07-37.67,51.12-37.67,84.62s12.9,56.08,39.43,68.54c23.95,11.24,56.36,12.79,87.83,12.79s63.88-1.55,87.83-12.79c26.53-12.46,39.43-34.88,39.43-68.54s-13.38-63.55-37.67-84.62c-23.17-20.1-54.99-31.16-89.59-31.16h0Z"/>
        </g>
        <path class="cls-6" d="m147.01,18.24s33.49,23.92,33.49,101.43c0,46.89-33.49,80.38-33.49,80.38,66.06,0,119.61-7.62,119.61-73.68S213.06,18.24,147.01,18.24Z"/>
        <path class="cls-5" d="m191.36,167.16c0,24.34-19.86,27.14-44.35,27.14s-44.35-2.81-44.35-27.14,19.86-39.84,44.35-39.84,44.35,15.5,44.35,39.84Z"/>
        <path class="cls-8" d="m132.65,137.53c0-4.96,6.43-5.53,14.35-5.53s14.35.57,14.35,5.53-9.65,10.84-14.35,10.84c-4.02,0-14.35-5.89-14.35-10.84Z"/>
        <path class="cls-3" d="m170.93,169.78c0-5.7-10.71-7.79-23.92-7.79s-23.92,2.09-23.92,7.79,10.71,16.99,23.92,16.99,23.92-11.29,23.92-16.99Z"/>
        <ellipse class="cls-2" cx="223.56" cy="161.77" rx="20.09" ry="9.65"/>
        <ellipse class="cls-2" cx="70.46" cy="161.77" rx="20.09" ry="9.65"/>
        <g>
          <path class="cls-7" d="m96.29,124.45c0,14.27-11.57,20.09-25.84,20.09s-25.84-5.83-25.84-20.09,11.57-25.84,25.84-25.84,25.84,11.57,25.84,25.84Z"/>
          <path class="cls-5" d="m84.28,110.63c-2.21,3.87-7.3,8.58-10.21,9.61-4.69,1.66-9.01-4.03-9.01-9.01s4.03-9.01,9.01-9.01,12.68,4.09,10.21,8.41Z"/>
          <path class="cls-5" d="m91.49,119.65c0,2.99-2.42,5.41-5.41,5.41s-6.52-2.63-5.41-5.41c1.2-3,4.22-6.61,7.21-6.61s3.6,3.62,3.6,6.61Z"/>
          <path class="cls-5" d="m61.45,135.15c.23,1.98-1.18,3.77-3.16,4s-5.1-2.23-5.34-4.21,2.93-4.18,4.49-2.95c2.67,2.1,3.77,1.18,4,3.16Z"/>
        </g>
        <g>
          <path class="cls-7" d="m249.39,124.45c0,14.27-11.57,20.09-25.84,20.09s-25.84-5.83-25.84-20.09,11.57-25.84,25.84-25.84,25.84,11.57,25.84,25.84Z"/>
          <path class="cls-5" d="m237.37,110.63c-2.21,3.87-7.3,8.58-10.21,9.61-4.69,1.66-9.01-4.03-9.01-9.01s4.03-9.01,9.01-9.01,12.68,4.09,10.21,8.41Z"/>
          <path class="cls-5" d="m244.58,119.65c0,2.99-2.42,5.41-5.41,5.41s-6.52-2.63-5.41-5.41c1.2-3,4.22-6.61,7.21-6.61s3.6,3.62,3.6,6.61Z"/>
          <path class="cls-5" d="m214.54,135.15c.23,1.98-1.18,3.77-3.16,4s-5.1-2.23-5.34-4.21,2.93-4.18,4.49-2.95c2.67,2.1,3.77,1.18,4,3.16Z"/>
        </g>
      </g>
      <g>
        <g>
          <path class="cls-1" d="m62.38,257.57h-13.34v10.69h-15.99v-9.98h-12.9v9.98H.88v12.11h18.54c-.46,2.59-1.32,5.15-2.59,7.69-1.33,2.65-3.33,5.2-6.01,7.64-2.68,2.44-6.29,4.67-10.82,6.67,1.06.71,2.21,1.62,3.45,2.74,1.24,1.12,2.43,2.28,3.58,3.49,1.15,1.21,2.05,2.28,2.7,3.23,5.18-2.47,9.34-5.27,12.46-8.39,3.12-3.12,5.46-6.44,7.02-9.94,1.56-3.5,2.59-7.05,3.09-10.65.12-.83.21-1.66.3-2.47h16.44v31.28h13.34v-31.28h19.71v-12.11h-19.71v-10.69Z"/>
          <path class="cls-1" d="m75.73,246.35c-2.71-2.65-5.64-5.24-8.79-7.78-3.15-2.53-6.2-4.8-9.15-6.8l-10.52,6.72c2.36,1.71,4.74,3.59,7.15,5.62-.75.02-1.49.05-2.25.08-6.33.21-12.49.4-18.47.57-.7.02-1.39.04-2.08.06,1.26-1.86,2.53-3.81,3.81-5.85,1.83-2.92,3.56-5.85,5.21-8.79l-14.58-3.18c-.88,2.47-2,5.14-3.36,8-1.36,2.86-2.8,5.64-4.33,8.35-.36.63-.71,1.24-1.07,1.84-.16,0-.32,0-.48.01-5.27.12-9.94.21-14.01.27l1.41,13.17c5.83-.29,12.38-.65,19.66-1.06,7.27-.41,14.9-.85,22.89-1.33,6.39-.38,12.73-.78,19.03-1.19,2.08,2.33,3.73,4.5,4.96,6.5l11.49-7.6c-1.65-2.41-3.83-4.95-6.54-7.6Z"/>
          <path class="cls-1" d="m158.39,249.75c1.33-2.39,2.68-4.92,4.06-7.6,1.38-2.68,2.72-5.38,4.02-8.09l-14.49-4.06c-.59,2.36-1.37,4.88-2.34,7.55-.97,2.68-2.03,5.29-3.18,7.82-1.15,2.53-2.28,4.83-3.4,6.89l11.49,3.89c1.24-1.88,2.52-4.02,3.84-6.41Z"/>
          <path class="cls-1" d="m101.62,249.53c1,2.42,1.74,4.57,2.21,6.45l12.46-5.21c-.59-1.88-1.41-3.98-2.47-6.27-1.06-2.3-2.27-4.64-3.62-7.02-1.36-2.39-2.8-4.58-4.33-6.58l-11.75,4.51c1.41,2.06,2.77,4.33,4.06,6.8,1.3,2.47,2.44,4.92,3.45,7.33Z"/>
          <polygon class="cls-1" points="136.87 227.62 122.65 227.62 122.65 257.93 96.67 257.93 96.67 270.83 151.01 270.83 151.01 276.31 99.76 276.31 99.76 288.68 151.01 288.68 151.01 295.21 94.55 295.21 94.55 308.03 151.01 308.03 151.01 311.47 164.8 311.47 164.8 257.93 136.87 257.93 136.87 227.62"/>
        </g>
        <g>
          <path class="cls-1" d="m194.89,246.83c-.55,2.2-1.25,4.83-2.11,7.89-.86,3.06-1.77,6.13-2.75,9.22-.98,3.09-1.99,5.76-3.03,8.02h-12.47c.61-2.81,1.19-5.76,1.74-8.85.55-3.09,1.07-6.13,1.56-9.12.49-2.99.86-5.71,1.1-8.16h15.31l.64,1.01Z"/>
          <path class="cls-1" d="m211.21,312.12c-5.2,0-9.49-2.23-12.88-6.69-3.39-4.46-5.09-10.97-5.09-19.53s1.73-15.23,5.18-19.67c3.45-4.43,7.93-6.65,13.43-6.65,3.42,0,6.16.7,8.21,2.11,2.05,1.41,3.74,3.18,5.09,5.32h.37c-.25-1.28-.44-3.06-.6-5.32-.15-2.26-.23-4.46-.23-6.6v-13.57h17.6v69.68h-13.2l-3.76-6.42h-.64c-1.22,2.02-2.9,3.75-5.04,5.18-2.14,1.44-4.95,2.15-8.44,2.15Zm7.15-13.84c2.81,0,4.8-.89,5.96-2.66,1.16-1.77,1.77-4.49,1.83-8.16v-1.38c0-3.97-.57-7.03-1.7-9.17-1.13-2.14-3.22-3.21-6.28-3.21-2.08,0-3.81,1.01-5.18,3.03-1.38,2.02-2.06,5.17-2.06,9.44s.69,7.29,2.06,9.21c1.38,1.93,3.16,2.89,5.36,2.89Z"/>
          <path class="cls-1" d="m293.63,285.71c0,8.5-2.26,15.02-6.78,19.58-4.52,4.55-10.73,6.83-18.61,6.83-4.89,0-9.23-1.02-13.02-3.07-3.79-2.05-6.77-5.04-8.94-8.99-2.17-3.94-3.25-8.72-3.25-14.35,0-8.37,2.26-14.82,6.78-19.35,4.52-4.52,10.76-6.78,18.7-6.78,4.89,0,9.21,1.01,12.97,3.03,3.76,2.02,6.72,4.97,8.89,8.85,2.17,3.88,3.25,8.63,3.25,14.26Zm-32.82,0c0,4.34.58,7.66,1.74,9.95,1.16,2.29,3.12,3.44,5.87,3.44s4.6-1.15,5.73-3.44c1.13-2.29,1.7-5.61,1.7-9.95s-.57-7.61-1.7-9.81c-1.13-2.2-3.07-3.3-5.82-3.3s-4.54,1.1-5.73,3.3c-1.19,2.2-1.79,5.47-1.79,9.81Z"/>
        </g>
      </g>
    </g>
  </g>
</svg>