<?xml version="1.0" encoding="UTF-8"?>
<svg id="Capa_2" data-name="Capa 2" xmlns="http://www.w3.org/2000/svg" viewBox="0 0 293.63 85.12">
  <defs>
    <style>
      .cls-1 {
        fill: #ffffff;
      }
    </style>
  </defs>

  <path class="cls-1" d="m62.38,30.57h-13.34v10.69h-15.99v-9.98h-12.9v9.98H.88v12.11h18.54c-.46,2.59-1.32,5.15-2.59,7.69-1.33,2.65-3.33,5.2-6.01,7.64-2.68,2.44-6.29,4.67-10.82,6.67,1.06.71,2.21,1.62,3.45,2.74,1.24,1.12,2.43,2.28,3.58,3.49,1.15,1.21,2.05,2.28,2.7,3.23,5.18-2.47,9.34-5.27,12.46-8.39,3.12-3.12,5.46-6.44,7.02-9.94,1.56-3.5,2.59-7.05,3.09-10.65.12-.83.21-1.66.3-2.47h16.44v31.28h13.34v-31.28h19.71v-12.11h-19.71v-10.69Z"/>
  <path class="cls-1" d="m75.73,19.35c-2.71-2.65-5.64-5.24-8.79-7.78-3.15-2.53-6.2-4.8-9.15-6.8l-10.52,6.72c2.36,1.71,4.74,3.59,7.15,5.62-.75.02-1.49.05-2.25.08-6.33.21-12.49.4-18.47.57-.7.02-1.39.04-2.08.06,1.26-1.86,2.53-3.81,3.81-5.85,1.83-2.92,3.56-5.85,5.21-8.79L26.07,0c-.88,2.47-2,5.14-3.36,8-1.36,2.86-2.8,5.64-4.33,8.35-.36.63-.71,1.24-1.07,1.84-.16,0-.32,0-.48.01-5.27.12-9.94.21-14.01.27l1.41,13.17c5.83-.29,12.38-.65,19.66-1.06,7.27-.41,14.9-.85,22.89-1.33,6.39-.38,12.73-.78,19.03-1.19,2.08,2.33,3.73,4.5,4.96,6.5l11.49-7.6c-1.65-2.41-3.83-4.95-6.54-7.6Z"/>
  <path class="cls-1" d="m158.39,22.75c1.33-2.39,2.68-4.92,4.06-7.6,1.38-2.68,2.72-5.38,4.02-8.09l-14.49-4.06c-.59,2.36-1.37,4.88-2.34,7.55-.97,2.68-2.03,5.29-3.18,7.82-1.15,2.53-2.28,4.83-3.4,6.89l11.49,3.89c1.24-1.88,2.52-4.02,3.84-6.41Z"/>
  <path class="cls-1" d="m101.62,22.53c1,2.42,1.74,4.57,2.21,6.45l12.46-5.21c-.59-1.88-1.41-3.98-2.47-6.27-1.06-2.3-2.27-4.64-3.62-7.02-1.36-2.39-2.8-4.58-4.33-6.58l-11.75,4.51c1.41,2.06,2.77,4.33,4.06,6.8,1.3,2.47,2.44,4.92,3.45,7.33Z"/>
  <polygon class="cls-1" points="136.87 .62 122.65 .62 122.65 30.93 96.67 30.93 96.67 43.83 151.01 43.83 151.01 49.31 99.76 49.31 99.76 61.68 151.01 61.68 151.01 68.22 94.55 68.22 94.55 81.03 151.01 81.03 151.01 84.47 164.8 84.47 164.8 30.93 136.87 30.93 136.87 .62"/>

  <path class="cls-1" d="m194.89,19.83c-.55,2.2-1.25,4.83-2.11,7.89-.86,3.06-1.77,6.13-2.75,9.22-.98,3.09-1.99,5.76-3.03,8.02h-12.47c.61-2.81,1.19-5.76,1.74-8.85.55-3.09,1.07-6.13,1.56-9.12.49-2.99.86-5.71,1.1-8.16h15.31l.64,1.01Z"/>
  <path class="cls-1" d="m211.21,85.12c-5.2,0-9.49-2.23-12.88-6.69-3.39-4.46-5.09-10.97-5.09-19.53s1.73-15.23,5.18-19.67c3.45-4.43,7.93-6.65,13.43-6.65,3.42,0,6.16.7,8.21,2.11,2.05,1.41,3.74,3.18,5.09,5.32h.37c-.25-1.28-.44-3.06-.6-5.32-.15-2.26-.23-4.46-.23-6.6v-13.57h17.6v69.68h-13.2l-3.76-6.42h-.64c-1.22,2.02-2.9,3.75-5.04,5.18-2.14,1.44-4.95,2.15-8.44,2.15Zm7.15-13.84c2.81,0,4.8-.89,5.96-2.66,1.16-1.77,1.77-4.49,1.83-8.16v-1.38c0-3.97-.57-7.03-1.7-9.17-1.13-2.14-3.22-3.21-6.28-3.21-2.08,0-3.81,1.01-5.18,3.03-1.38,2.02-2.06,5.17-2.06,9.44s.69,7.29,2.06,9.21c1.38,1.93,3.16,2.89,5.36,2.89Z"/>
  <path class="cls-1" d="m293.63,58.71c0,8.5-2.26,15.02-6.78,19.58-4.52,4.55-10.73,6.83-18.61,6.83-4.89,0-9.23-1.02-13.02-3.07-3.79-2.05-6.77-5.04-8.94-8.99-2.17-3.94-3.25-8.72-3.25-14.35,0-8.37,2.26-14.82,6.78-19.35,4.52-4.52,10.76-6.78,18.7-6.78,4.89,0,9.21,1.01,12.97,3.03,3.76,2.02,6.72,4.97,8.89,8.85,2.17,3.88,3.25,8.63,3.25,14.26Zm-32.82,0c0,4.34.58,7.66,1.74,9.95,1.16,2.29,3.12,3.44,5.87,3.44s4.6-1.15,5.73-3.44c1.13-2.29,1.7-5.61,1.7-9.95s-.57-7.61-1.7-9.81c-1.13-2.2-3.07-3.3-5.82-3.3s-4.54,1.1-5.73,3.3c-1.19,2.2-1.79,5.47-1.79,9.81Z"/>

</svg>