<svg width="176" height="171" viewBox="0 0 176 171" fill="none" xmlns="http://www.w3.org/2000/svg">
<g id="Group 1">
<rect id="Rectangle 5" x="0.5" y="0.5" width="175" height="170" rx="19.5" fill="url(#paint0_linear_1_222)" fill-opacity="0.1" stroke="white"/>
<path id="Vector" d="M26.4381 30.5014L35.5976 21.3408C36.1341 20.8042 36.1341 19.9391 35.5976 19.4025C35.0611 18.8658 34.196 18.8658 33.6595 19.4025L24.5 28.563L15.3405 19.4025C14.804 18.8658 13.9389 18.8658 13.4024 19.4025C12.8659 19.9391 12.8659 20.8042 13.4024 21.3408L22.5619 30.5014L13.4024 39.6619C12.8659 40.1985 12.8659 41.0637 13.4024 41.6003C13.6707 41.8686 14.0211 42 14.3715 42C14.7219 42 15.0722 41.8686 15.3405 41.6003L24.5 32.4397L33.6595 41.6003C33.9278 41.8686 34.2781 42 34.6285 42C34.9789 42 35.3293 41.8686 35.5976 41.6003C36.1341 41.0637 36.1341 40.1985 35.5976 39.6619L26.4381 30.5014Z" fill="#5ACAD0"/>
<path id="Vector_2" d="M149.5 43C142.606 43 137 37.3944 137 30.5C137 23.6056 142.606 18 149.5 18C156.394 18 162 23.6056 162 30.5C162 37.3944 156.394 43 149.5 43ZM149.5 20.7778C144.139 20.7778 139.778 25.1389 139.778 30.5C139.778 35.8611 144.139 40.2222 149.5 40.2222C154.861 40.2222 159.222 35.8611 159.222 30.5C159.222 25.1389 154.861 20.7778 149.5 20.7778Z" fill="#5ACAD0"/>
<rect id="Rectangle 23" x="13" y="66" width="149" height="15" rx="7.5" fill="#D9D9D9" fill-opacity="0.2"/>
<rect id="Rectangle 24" x="13" y="99" width="149" height="15" rx="7.5" fill="#D9D9D9" fill-opacity="0.2"/>
<rect id="Rectangle 25" x="13" y="132" width="120" height="15" rx="7.5" fill="#D9D9D9" fill-opacity="0.2"/>
</g>
<defs>
<linearGradient id="paint0_linear_1_222" x1="88" y1="0" x2="88" y2="171" gradientUnits="userSpaceOnUse">
<stop stop-color="white"/>
<stop offset="1" stop-color="white" stop-opacity="0"/>
</linearGradient>
</defs>
</svg>
